<svg width="36" height="33" viewBox="0 0 36 33" fill="none" xmlns="http://www.w3.org/2000/svg">
<path fill-rule="evenodd" clip-rule="evenodd" d="M4.49108 28.4939H4.48808C4.53458 29.6804 4.88858 29.9624 5.91907 29.9924C7.78057 30.0119 29.19 29.9924 30.066 29.9789C31.0845 29.9459 31.446 29.5754 31.506 28.5644C31.506 28.5644 14.4301 28.6184 4.49108 28.4939ZM10.1776 22.506L4.50908 22.4939C3.63158 22.506 3.03908 23.1734 3.00158 23.9144C2.96258 24.6989 3.53258 25.4639 4.50908 25.4939H31.521C32.4885 25.4429 33.036 24.6854 32.9985 23.9144C32.958 23.1794 32.3415 22.5345 31.5 22.5C29.55 22.476 21.885 22.5044 21.669 22.506C20.886 22.5105 20.187 22.9214 19.725 23.1944C18.39 23.9774 17.3445 24.7679 15.747 24.7514C13.9711 24.7334 13.0141 23.9249 11.8921 23.2169C11.4586 22.9439 10.9471 22.5014 10.1776 22.506ZM27.033 18.366C26.016 18.366 25.0935 17.9055 24.2775 17.499C22.5975 16.6635 22.458 16.662 20.778 17.499C19.9635 17.9055 19.0395 18.366 18.021 18.366C17.004 18.366 16.0815 17.9055 15.2655 17.499C13.5901 16.6635 13.4446 16.662 11.7676 17.499C10.9516 17.9055 10.0291 18.366 9.01056 18.366C7.99507 18.366 7.06957 17.9055 6.25507 17.499C4.75208 16.7505 4.04708 16.365 1.82708 18.1215C1.61258 18.291 1.37108 18.3675 1.13408 18.3675C0.549086 18.3675 8.7651e-05 17.901 8.7651e-05 17.2425C8.7651e-05 16.914 0.144087 16.587 0.423087 16.3665C3.54308 13.875 5.28157 14.5005 7.26157 15.489C7.91257 15.813 8.52607 16.119 9.01056 16.119C9.49656 16.119 10.1116 15.813 10.7596 15.489C13.0741 14.3355 13.9396 14.325 16.2735 15.489C16.923 15.813 17.538 16.119 18.021 16.119C18.507 16.119 19.122 15.813 19.77 15.489C22.0845 14.3355 22.9485 14.325 25.284 15.489C25.9365 15.813 26.5485 16.119 27.033 16.119C27.5175 16.119 28.131 15.813 28.7835 15.489C30.735 14.5155 32.4945 13.854 35.5875 16.374C35.859 16.596 36 16.9185 36 17.2425C36 17.8605 35.5005 18.3645 34.8735 18.3645C34.6245 18.3645 34.3725 18.282 34.161 18.1125C32.0055 16.362 31.2915 16.7505 29.79 17.499C28.974 17.9055 28.05 18.366 27.033 18.366ZM34.5 13.4955H1.50008C1.55858 5.40899 8.74357 0 18.1545 0C26.634 0 34.4385 5.01599 34.5 13.4955ZM17.796 2.99549C12.3271 3.07199 6.81757 5.36549 5.00557 10.467L4.99507 10.4955H31.005C29.2215 5.26349 23.3565 2.97599 17.796 2.99549ZM14.2501 7.49548C14.664 7.49548 15 7.83148 15 8.24548C15 8.65798 14.664 8.99548 14.2501 8.99548C13.8361 8.99548 13.5001 8.65798 13.5001 8.24548C13.5001 7.83148 13.8361 7.49548 14.2501 7.49548ZM21.75 7.49548C22.164 7.49548 22.5 7.83148 22.5 8.24548C22.5 8.65798 22.164 8.99548 21.75 8.99548C21.3345 8.99548 21 8.65798 21 8.24548C21 7.83148 21.3345 7.49548 21.75 7.49548ZM27.75 7.49548C28.164 7.49548 28.5 7.83148 28.5 8.24548C28.5 8.65798 28.164 8.99548 27.75 8.99548C27.3345 8.99548 27 8.65798 27 8.24548C27 7.83148 27.3345 7.49548 27.75 7.49548ZM9.75006 7.49548C10.1641 7.49548 10.5001 7.83148 10.5001 8.24548C10.5001 8.65798 10.1641 8.99548 9.75006 8.99548C9.33606 8.99548 9.00006 8.65798 9.00006 8.24548C9.00006 7.83148 9.33606 7.49548 9.75006 7.49548ZM17.25 5.99549C17.664 5.99549 18 6.33149 18 6.74549C18 7.15798 17.664 7.49548 17.25 7.49548C16.836 7.49548 16.5 7.15798 16.5 6.74549C16.5 6.33149 16.836 5.99549 17.25 5.99549ZM24.75 5.99549C25.164 5.99549 25.5 6.33149 25.5 6.74549C25.5 7.15798 25.164 7.49548 24.75 7.49548C24.3345 7.49548 24 7.15798 24 6.74549C24 6.33149 24.3345 5.99549 24.75 5.99549ZM12.7501 4.49549C13.1641 4.49549 13.5001 4.83149 13.5001 5.24549C13.5001 5.65799 13.1641 5.99549 12.7501 5.99549C12.3361 5.99549 12.0001 5.65799 12.0001 5.24549C12.0001 4.83149 12.3361 4.49549 12.7501 4.49549ZM20.25 4.49549C20.664 4.49549 21 4.83149 21 5.24549C21 5.65799 20.664 5.99549 20.25 5.99549C19.8345 5.99549 19.5 5.65799 19.5 5.24549C19.5 4.83149 19.8345 4.49549 20.25 4.49549ZM4.38458 19.4955C4.64408 19.4925 10.0516 19.503 10.5001 19.506C12.6646 19.5195 14.1331 22.014 15.762 22.005C17.214 21.9975 19.188 19.509 21.3345 19.506C21.603 19.5045 30.618 19.482 31.6155 19.4955C34.098 19.587 35.88 21.5205 35.994 23.7644C36.066 25.1609 35.487 26.4824 34.4475 27.3914C34.8615 30.8909 33.0615 32.8754 30.141 32.9789C29.241 32.9924 7.74157 33.0104 5.85907 32.9924C2.60708 32.8904 1.19258 30.6689 1.53908 27.3779C0.504086 26.4689 -0.0659122 25.1504 0.00608764 23.7644C0.120087 21.5205 1.90208 19.587 4.38458 19.4955Z" fill="white"/>
</svg>
