<svg width="15" height="18" viewBox="0 0 15 18" fill="none" xmlns="http://www.w3.org/2000/svg">
<path fill-rule="evenodd" clip-rule="evenodd" d="M7.5 0C3.3585 0 0 3.29625 0 7.36125C0 11.4449 3.20994 14.2504 7.36206 17.8794L7.5 18L7.63794 17.8794C11.7901 14.2504 15 11.4449 15 7.36125C15 3.29625 11.6415 0 7.5 0ZM7.5 13.5C4.18575 13.5 1.5 10.8135 1.5 7.5C1.5 4.1865 4.18575 1.5 7.5 1.5C10.8142 1.5 13.5 4.1865 13.5 7.5C13.5 10.8135 10.8142 13.5 7.5 13.5ZM6.969 10.5315L11.25 6.31125L10.1895 5.25L6.96825 8.40975L5.25 6.75L4.1895 7.81125L6.969 10.5315Z" fill="white"/>
</svg>
