<svg width="64" height="57" viewBox="0 0 64 57" fill="none" xmlns="http://www.w3.org/2000/svg">
<path fill-rule="evenodd" clip-rule="evenodd" d="M41.0609 6.72052H44.7931C45.4835 6.72052 46.0431 7.27771 46.0431 7.96507C46.0431 8.65243 45.4835 9.20961 44.7931 9.20961H38.0431C37.5375 9.20961 37.0817 8.90644 36.8882 8.44135C36.6947 7.97639 36.8016 7.44099 37.1591 7.08505L41.7752 2.48908H38.043C37.3526 2.48908 36.793 1.9319 36.793 1.24454C36.793 0.557181 37.3526 0 38.043 0H44.793C45.2986 0 45.7544 0.30317 45.9479 0.768255C46.1414 1.23322 46.0345 1.76862 45.677 2.12456L41.0609 6.72052ZM56.9157 27.979C57.6287 27.5314 58.4716 27.2713 59.375 27.2713C61.9253 27.2713 64 29.3371 64 31.8761V55.7555C64 56.4427 63.4404 57 62.75 57H56C55.3096 57 54.75 56.4427 54.75 55.7555V50.2795H36.684H36.668H9.25V55.7555C9.25 56.4427 8.69038 57 8 57H1.25C0.559625 57 0 56.4427 0 55.7555V11.3253C0 8.78621 2.07475 6.72052 4.625 6.72052C7.17525 6.72052 9.25 8.78621 9.25 11.3253V22.6764C10.1753 22.0427 11.2946 21.6708 12.5 21.6708C14.9635 21.6708 17.0695 23.2216 17.8865 25.394C18.9171 24.5368 20.2426 24.0197 21.6875 24.0197H51.3125C53.8994 24.0197 56.104 25.676 56.9157 27.979ZM36.668 47.7904H36.684H54.7497V41.9111C54.1131 41.9847 53.4588 41.843 52.9004 41.4873L52.8279 41.4412C51.782 40.7752 50.4333 40.7778 49.3909 41.4473L49.3166 41.495C48.3834 42.0946 47.3118 42.3946 46.24 42.3947C45.1751 42.3947 44.1101 42.0986 43.1796 41.506L43.0769 41.4406C42.032 40.7753 40.6833 40.7778 39.641 41.4475L39.568 41.4944C37.7061 42.6904 35.2965 42.6952 33.4296 41.5061L33.3269 41.4407C32.2821 40.7754 30.9334 40.7779 29.891 41.4476L29.818 41.4945C27.956 42.6905 25.5465 42.6954 23.6796 41.5062L23.5769 41.4409C22.5321 40.7755 21.1834 40.778 20.141 41.4477L20.1096 41.4679C19.2385 42.0273 18.1333 42.0681 17.224 41.5749C16.3149 41.0817 15.75 40.1348 15.75 39.1039V33.1206H9.25V47.7904H36.668ZM6.75 49.0349V31.8761V11.3253C6.75 10.1587 5.79675 9.20961 4.625 9.20961C3.45325 9.20961 2.5 10.1587 2.5 11.3253V54.5109H6.75V49.0349ZM12.5 30.6315C10.708 30.6315 9.25 29.18 9.25 27.3957C9.25 25.6115 10.708 24.1599 12.5 24.1599C14.292 24.1599 15.75 25.6115 15.75 27.3957C15.75 29.18 14.292 30.6315 12.5 30.6315ZM42.3009 29.9935H54.7501V29.9312C54.7501 28.044 53.2081 26.5087 51.3126 26.5087H21.6876C19.7921 26.5087 18.2501 28.044 18.2501 29.9312V39.1042C18.2501 39.2638 18.3428 39.3475 18.4204 39.3896C18.4983 39.4318 18.6189 39.4638 18.7535 39.3773L18.7849 39.3571C20.6481 38.1603 23.0576 38.1557 24.9245 39.3446L25.0273 39.4099C26.0721 40.0754 27.4209 40.0729 28.4631 39.4031L28.5361 39.3561C29.4703 38.7561 30.5423 38.456 31.6144 38.456C32.6791 38.456 33.7441 38.752 34.6744 39.3446L34.7771 39.4099C35.822 40.0754 37.1707 40.0729 38.213 39.4031L38.286 39.3561C40.148 38.1601 42.5575 38.1554 44.4244 39.3444L44.5271 39.4098C45.5721 40.0752 46.9207 40.0727 47.963 39.4029L48.036 39.356C49.898 38.1598 52.3075 38.1552 54.1744 39.3443L54.2469 39.3904C54.3825 39.4769 54.503 39.4446 54.5804 39.4023C54.6577 39.3601 54.75 39.2765 54.75 39.1173V32.4825H42.3009C41.6105 32.4825 41.0509 31.9252 41.0509 31.238C41.0509 30.5508 41.6105 29.9935 42.3009 29.9935ZM57.25 54.5109V49.0349V39.1173V31.8761C57.25 30.7094 58.2033 29.7603 59.375 29.7603C60.5467 29.7603 61.5 30.7094 61.5 31.8761V54.5109H57.25ZM32.0001 11.6987H30.0179L32.884 8.84508C33.2415 8.48914 33.3484 7.95374 33.1549 7.48878C32.9614 7.02382 32.5055 6.72052 32 6.72052H27C26.3096 6.72052 25.75 7.27771 25.75 7.96507C25.75 8.65243 26.3096 9.20961 27 9.20961H28.9823L26.1161 12.0632C25.7586 12.4192 25.6518 12.9546 25.8452 13.4195C26.0387 13.8846 26.4945 14.1878 27.0001 14.1878H32.0001C32.6905 14.1878 33.2501 13.6306 33.2501 12.9432C33.2501 12.2559 32.6905 11.6987 32.0001 11.6987ZM20.5559 16.179H21.5381C22.2285 16.179 22.7881 16.7362 22.7881 17.4236C22.7881 18.1109 22.2285 18.6681 21.5381 18.6681H17.5381C17.0325 18.6681 16.5767 18.365 16.3832 17.8999C16.1898 17.4349 16.2966 16.8995 16.6541 16.5436L18.5203 14.6856H17.538C16.8476 14.6856 16.288 14.1284 16.288 13.441C16.288 12.7537 16.8476 12.1965 17.538 12.1965H21.538C22.0436 12.1965 22.4994 12.4997 22.6929 12.9648C22.8864 13.4297 22.7795 13.9651 22.422 14.3211L20.5559 16.179Z" fill="#2C4664"/>
</svg>
