<svg width="48" height="36" viewBox="0 0 48 36" fill="none" xmlns="http://www.w3.org/2000/svg">
<path fill-rule="evenodd" clip-rule="evenodd" d="M2 36C14.216 33.588 22 22.832 22 12.55C22 4.61 16.428 0 10.398 0C5.168 0 0 3.594 0 9.958C0 15.16 3.81 19.472 8.792 20.256C8.358 24.264 4.462 30.078 0.032 31.748L2 36ZM13.178 16.898C13.374 19.374 12.824 23.654 9.816 28.274C15.176 24.24 18 17.998 18 12.55C18 6.676 14.058 4 10.398 4C1.786 4 0.914 17.1 13.178 16.898ZM39.178 16.898C39.374 19.374 38.824 23.654 35.816 28.274C41.176 24.24 44 17.998 44 12.55C44 6.676 40.058 4 36.398 4C27.786 4 26.914 17.1 39.178 16.898ZM48 12.55C48 22.832 40.216 33.588 28 36L26.032 31.748C30.462 30.078 34.358 24.264 34.792 20.256C29.81 19.472 26 15.16 26 9.958C26 3.594 31.168 0 36.398 0C42.428 0 48 4.61 48 12.55Z" fill="#2C4664"/>
</svg>
