<svg width="36" height="36" viewBox="0 0 36 36" fill="none" xmlns="http://www.w3.org/2000/svg">
<path fill-rule="evenodd" clip-rule="evenodd" d="M2.406 36C5.1855 31.824 13.8765 23.685 23.2845 21.759L24.072 26.673C18.4125 27.069 10.557 30.4575 2.406 36ZM0 34.5C3.0555 30.5205 9.0195 24.141 9.339 11.862L4.4325 12.7035C5.0595 20.0355 2.1135 28.6425 0 34.5ZM31.2405 17.3655L32.4435 20.9655L36 22.29L32.9475 24.546L32.787 28.338L29.697 26.1315L26.0415 27.1515L27.186 23.532L25.086 20.3685L28.8825 20.3385L31.2405 17.3655ZM13.374 22.881H13.347C12.945 22.881 12.612 22.5615 12.5985 22.1565C12.4515 17.841 13.365 14.8515 18.2955 14.2965C21.225 13.968 21.339 12.6225 21.498 10.761C21.6465 9.0045 21.8505 6.5985 25.6035 6.3225C27.4485 6.1875 28.4655 5.862 29.004 5.235C29.6145 4.5225 29.796 3.1995 29.6085 0.813C29.5755 0.4005 29.8845 0.039 30.297 0.006C30.678 -0.0225 31.071 0.282 31.1025 0.696C31.329 3.555 31.05 5.154 30.1425 6.213C29.3085 7.1835 28.026 7.6485 25.713 7.818C23.2365 8.001 23.145 9.087 22.992 10.887C22.833 12.7575 22.6155 15.321 18.462 15.7875C14.967 16.1805 13.9455 17.658 14.097 22.1055C14.112 22.5195 13.7865 22.866 13.374 22.881ZM31.5 9C33.156 9 34.5 10.344 34.5 12C34.5 13.656 33.156 15 31.5 15C29.844 15 28.5 13.656 28.5 12C28.5 10.344 29.844 9 31.5 9ZM10.9275 2.913L7.131 2.9385L4.7295 0L3.5805 3.618L0.042 4.995L3.129 7.2045L3.345 10.995L6.4005 8.7435L10.071 9.708L8.874 6.1065L10.9275 2.913ZM16.5 3C18.156 3 19.5 4.344 19.5 6C19.5 7.656 18.156 9 16.5 9C14.844 9 13.5 7.656 13.5 6C13.5 4.344 14.844 3 16.5 3Z" fill="#2C4664"/>
</svg>
