<svg width="64" height="64" viewBox="0 0 64 64" fill="none" xmlns="http://www.w3.org/2000/svg">
<path fill-rule="evenodd" clip-rule="evenodd" d="M61.8667 19.5897V0.0219039H64V19.5897C64.0003 20.1625 63.9081 20.7316 63.7272 21.275L58.6116 36.6135C58.584 36.6968 58.5463 36.7765 58.4991 36.8505L50.5137 49.3457C50.4628 49.4254 50.4089 49.5031 50.3521 49.5787C49.0993 51.2478 46.7301 51.5857 45.0604 50.3333C45.0258 50.3074 44.9955 50.2784 44.9651 50.2495L44.9651 50.2494C44.9422 50.2276 44.9193 50.2058 44.8947 50.1853C44.8598 50.2251 44.8264 50.2656 44.793 50.3062C44.7492 50.3595 44.7054 50.4127 44.6584 50.464C44.0457 51.1355 43.3796 51.7563 42.6667 52.3203V56.3651C42.6679 58.4835 43.0097 60.588 43.6792 62.5978C43.7152 62.7062 43.7335 62.8196 43.7335 62.9338C43.7335 63.5228 43.2557 64.0001 42.6667 64H21.3333C21.2191 64 21.1056 63.9817 20.9972 63.9458C20.438 63.7602 20.1352 63.1567 20.3208 62.5978C20.9903 60.588 21.3321 58.4835 21.3333 56.3651V52.3195C20.6177 51.7533 19.9492 51.13 19.3344 50.4557C19.2911 50.4085 19.2501 50.3586 19.209 50.3086C19.1759 50.2683 19.1428 50.228 19.1085 50.1891C19.0901 50.2041 19.0734 50.2203 19.0567 50.2365C19.0363 50.2561 19.0159 50.2758 18.9927 50.2932C18.3228 50.8048 17.5044 51.0842 16.6615 51.0888C16.4389 51.0888 16.2168 51.0688 15.9979 51.029C14.9635 50.8401 14.054 50.2304 13.4864 49.3457L5.50107 36.8505C5.45387 36.7765 5.41613 36.6968 5.38853 36.6135L0.274001 21.2756C0.0922672 20.7321 -0.000266092 20.1627 0 19.5897V0.0219039H2.13333V19.5897C2.1332 19.9336 2.1888 20.2754 2.29787 20.6015L7.37067 35.8136L15.2853 48.1975C15.5303 48.5849 15.9272 48.8511 16.3787 48.9306C16.8292 49.0121 17.2933 48.9025 17.6599 48.6282C18.4047 48.0691 18.6088 47.1516 18.1975 46.406C16.3421 43.0381 12.9308 36.7869 12.9308 36.7869C12.8909 36.714 12.8596 36.6368 12.8375 36.5567L11.9747 33.3949L8.58333 22.7376L10.6167 22.0909L14.0157 32.7724L14.008 32.7748C14.0102 32.7818 14.014 32.7878 14.0178 32.7938C14.022 32.8004 14.0261 32.8069 14.0283 32.8148C14.0471 32.8836 14.0697 32.9514 14.0963 33.0177C14.4805 33.9785 15.5712 34.446 16.5324 34.0619C17.3712 33.7262 17.8512 32.8404 17.6741 31.9547L16.0208 23.6898C16.0072 23.6209 16.0001 23.5508 16 23.4805V20.3576C16.0123 15.8102 14.2044 11.4468 10.9792 8.23989C10.7792 8.03996 10.6667 7.76885 10.6667 7.48602V0.0219039H12.8V7.05123C13.5385 7.83096 14.2111 8.67068 14.8105 9.56157C16.4535 6.91541 18.6855 4.68444 21.3325 3.04234C30.826 -2.84671 43.2975 0.0726871 49.1885 9.5629C49.7883 8.67148 50.4611 7.83136 51.2 7.05123V0.0219039H53.3333V7.48602C53.3333 7.76885 53.2208 8.03996 53.0208 8.23989C49.7957 11.4467 47.9879 15.8098 48 20.3571V23.4805C48 23.5509 47.9933 23.6212 47.9799 23.6902L46.3265 31.9551C46.15 32.8404 46.6299 33.7256 47.4683 34.0611C47.5349 34.0877 47.6031 34.1106 47.6723 34.1294C48.6707 34.4012 49.7004 33.8126 49.9724 32.8145L49.9732 32.812L49.9742 32.8094L49.9761 32.8051C49.9781 32.8013 49.9804 32.7977 49.9827 32.794C49.9865 32.7879 49.9904 32.7818 49.9927 32.7746L49.9849 32.7722L53.3839 22.0909L55.4172 22.7376L52.0259 33.3949L51.1631 36.5567C51.1409 36.6368 51.1096 36.714 51.0697 36.7869C51.0697 36.7869 47.6584 43.0384 45.8031 46.406C45.6329 46.7351 45.5721 47.1098 45.6292 47.4757C45.7777 48.4275 46.6701 49.0787 47.6223 48.9302C48.0736 48.8504 48.4704 48.5843 48.7156 48.1971L56.6303 35.8133L61.7031 20.6009C61.8115 20.2747 61.8667 19.9334 61.8667 19.5897ZM46.8459 11.2134C47.136 11.5241 47.424 11.8403 47.7003 12.1799C47.7328 12.1107 47.7636 12.0408 47.7944 11.9708C47.8406 11.8662 47.8867 11.7615 47.9385 11.6594C47.7591 11.3275 47.572 11.0021 47.3745 10.6849L46.8459 11.2134ZM46.1308 8.91219L45.3181 9.72525C44.5216 9.02389 43.67 8.38771 42.7715 7.8227L43.9501 6.64457C44.7417 7.3354 45.4715 8.09421 46.1308 8.91219ZM21.7543 5.33249L23.178 6.7556C24.1279 6.28842 25.1143 5.89989 26.1276 5.59373L25.0876 3.51577C23.9156 4.00227 22.7983 4.61127 21.7543 5.33249ZM28.258 5.08284L28.258 5.08279C29.1414 4.91381 30.0351 4.8052 30.9333 4.75762V2.20649C29.6472 2.27873 28.3724 2.48773 27.1305 2.83028L28.258 5.08279L28.2577 5.08284H28.258ZM36.88 2.81788C35.6347 2.47453 34.3564 2.26447 33.0667 2.19143V4.75775C33.9653 4.80587 34.8596 4.9149 35.7435 5.08377L36.88 2.81788ZM38.9136 3.51977C40.088 4.00121 41.2081 4.60567 42.2551 5.32316L40.8217 6.75573C39.8723 6.28856 38.8863 5.89976 37.8733 5.59333L38.9136 3.51977ZM21.2284 7.8223L20.0639 6.65843C20.0127 6.70321 19.9615 6.74782 19.9102 6.79245C19.6605 7.00978 19.4107 7.22722 19.1736 7.46309C18.7164 7.92626 18.2847 8.41396 17.8803 8.92392L18.6817 9.72498C19.4777 9.02282 20.3293 8.38651 21.2284 7.8223ZM16.6239 10.6837L17.1543 11.2138C16.8633 11.526 16.5745 11.8423 16.2999 12.1799C16.2675 12.111 16.2368 12.0415 16.2062 11.9719C16.1602 11.8676 16.1142 11.7634 16.0627 11.6617C16.2416 11.3306 16.4251 11.0024 16.6237 10.684L16.6239 10.6837ZM22.76 61.8674H41.24C40.7713 60.0709 40.5339 58.2221 40.5331 56.3657V53.809C40.01 54.111 39.4715 54.3854 38.9197 54.6313C34.5149 56.588 29.4871 56.588 25.0823 54.6313C24.5297 54.3853 23.9904 54.1105 23.4667 53.808V56.3651C23.466 58.2218 23.2285 60.0708 22.76 61.8674ZM43.0785 49.0318C41.6807 50.5902 39.9679 51.8344 38.0533 52.682C34.1984 54.385 29.8041 54.385 25.9492 52.682C24.0307 51.8326 22.3145 50.585 20.9148 49.0223C20.7675 48.862 20.6306 48.6957 20.4939 48.5296C20.4479 48.4739 20.402 48.4181 20.3557 48.3626C20.6749 47.37 20.5701 46.2897 20.0659 45.3769C18.5253 42.5795 15.9085 37.789 15.07 36.2535C17.2417 36.6771 19.3459 35.2606 19.7697 33.0895C19.8699 32.5764 19.8687 32.0485 19.7659 31.5359L19.0435 27.9238C19.9865 28.0161 20.9357 28.0795 21.8888 28.0795C23.5517 28.0808 25.2117 27.9389 26.8503 27.6551L26.4836 25.5548C23.8795 25.9969 21.2247 26.0553 18.6036 25.728L18.1333 23.3748V21.5355C20.5413 20.2502 23.4499 19.9386 26.4041 20.6859L26.9292 18.6189C23.8287 17.8325 20.7516 18.0539 18.0785 19.1987C17.9875 17.6075 17.6989 16.0339 17.2196 14.5139C17.7519 13.7505 18.3429 13.0299 18.9875 12.3586C19.0347 12.3058 19.0868 12.2531 19.1404 12.1988L19.1749 12.1639L19.2018 12.1371L19.2019 12.1371C19.2489 12.0903 19.3007 12.0387 19.3907 11.9597C20.6021 10.7797 21.9765 9.77923 23.4719 8.98883C24.8701 8.23469 26.3653 7.67622 27.9156 7.329C30.6065 6.70042 33.4064 6.70135 36.0969 7.33167C37.6452 7.67955 39.1383 8.23842 40.5344 8.99257C42.0343 9.78656 43.4124 10.7914 44.6267 11.9766C44.7693 12.1099 44.9007 12.2417 45.0485 12.3994C45.6801 13.0578 46.2591 13.7648 46.78 14.5137C46.3005 16.0339 46.012 17.6076 45.9211 19.1989C43.2485 18.0545 40.1727 17.8339 37.0704 18.6191L37.5955 20.6862C40.5497 19.9379 43.4591 20.2494 45.8663 21.5355V23.3748L45.3755 25.8288C43.1088 26.0263 40.8263 25.9341 38.5829 25.5544L38.2163 27.6556C39.8357 27.9345 41.476 28.074 43.1193 28.0727C43.7279 28.0727 44.3348 28.0492 44.9389 28.0114L44.234 31.5362C43.8 33.7057 45.2075 35.816 47.3777 36.2499C47.8899 36.3523 48.4172 36.3536 48.9299 36.2538L48.8642 36.3741C47.9621 38.026 45.4373 42.6492 43.934 45.3772C43.4303 46.2879 43.3272 47.3669 43.6496 48.3566C43.6283 48.3822 43.607 48.4079 43.5858 48.4337C43.563 48.4613 43.5403 48.4889 43.5176 48.5165L43.5176 48.5166C43.3759 48.6889 43.234 48.8615 43.0781 49.0318H43.0785ZM30.9333 21.3479H33.0667V33.0773H30.9333V21.3479ZM26.5521 37.3061L26.2708 37.4184L27.0625 39.3991L27.3437 39.2861C30.2145 38.1386 33.7855 38.1381 36.6563 39.2861L36.9375 39.3986L37.7292 37.4179L37.4479 37.3059C34.0792 35.958 29.9208 35.9585 26.5521 37.3061Z" fill="#2C4664"/>
</svg>
