<svg width="128" height="126" viewBox="0 0 128 126" fill="none" xmlns="http://www.w3.org/2000/svg">
<path fill-rule="evenodd" clip-rule="evenodd" d="M46 19.63C46 8.79 54.956 0 66 0C77.044 0 86 8.79 86 19.63C86 30.5197 77.4402 38.0011 66.3678 47.6785L66 48L65.6322 47.6785C54.5598 38.0011 46 30.5197 46 19.63ZM50 20C50 28.836 57.162 36 66 36C74.838 36 82 28.836 82 20C82 11.164 74.838 4 66 4C57.162 4 50 11.164 50 20ZM0 66.815C0 61.395 4.478 57 10 57C15.522 57 20 61.395 20 66.815C20 72.2599 15.7201 76.0006 10.1839 80.8392L10 81L9.81608 80.8392C4.27992 76.0006 0 72.2599 0 66.815ZM2 67C2 71.418 5.581 75 10 75C14.419 75 18 71.418 18 67C18 62.582 14.419 59 10 59C5.581 59 2 62.582 2 67ZM113 90C104.717 90 98 96.5925 98 104.723C98 112.89 104.42 118.501 112.724 125.759L113 126L113.276 125.759C121.58 118.501 128 112.89 128 104.723C128 96.5925 121.283 90 113 90ZM113 117C106.371 117 101 111.627 101 105C101 98.373 106.371 93 113 93C119.629 93 125 98.373 125 105C125 111.627 119.629 117 113 117Z" fill="url(#paint0_linear_0_1677)"/>
<defs>
<linearGradient id="paint0_linear_0_1677" x1="0" y1="0" x2="0" y2="126" gradientUnits="userSpaceOnUse">
<stop stop-color="#7F95AE"/>
<stop offset="1" stop-color="#C7D2E0"/>
</linearGradient>
</defs>
</svg>
