<svg width="24" height="22" viewBox="0 0 24 22" fill="none" xmlns="http://www.w3.org/2000/svg">
<path fill-rule="evenodd" clip-rule="evenodd" d="M11.9995 0C5.66176 0 0 4.226 0 10.007C0 12.057 0.737969 14.07 2.04691 15.632C2.10191 17.462 1.02396 20.088 0.0539978 22C2.65589 21.53 6.35474 20.492 8.03167 19.464C9.44961 19.809 10.8065 19.967 12.0905 19.967C19.1742 19.967 24 15.13 24 10.006C23.999 4.195 18.2982 0 11.9995 0ZM11.9995 2C17.5133 2 21.9991 5.592 21.9991 10.007C21.9991 14.924 16.8543 17.968 12.0895 17.968C10.2988 17.968 8.92779 17.6287 7.93214 17.3823C7.85083 17.3622 7.77201 17.3427 7.69568 17.324C7.6343 17.3616 7.57444 17.3985 7.51554 17.4349L7.51476 17.4354C6.61444 17.9906 5.9357 18.4093 3.42386 19.144C3.95884 17.771 4.14683 16.396 4.02583 14.879L4.0093 14.8593C3.17235 13.8606 2.00092 12.4628 2.00092 10.007C1.99992 5.592 6.48573 2 11.9995 2ZM6.99971 11.5C7.82867 11.5 8.49965 10.829 8.49965 10C8.49965 9.171 7.82867 8.5 6.99971 8.5C6.17174 8.5 5.49977 9.171 5.49977 10C5.49977 10.829 6.17174 11.5 6.99971 11.5ZM11.9995 8.5C11.1715 8.5 10.4996 9.171 10.4996 10C10.4996 10.829 11.1715 11.5 11.9995 11.5C12.8285 11.5 13.4994 10.829 13.4994 10C13.4994 9.171 12.8285 8.5 11.9995 8.5ZM15.4994 10C15.4994 9.171 16.1713 8.5 16.9993 8.5C17.8283 8.5 18.4992 9.171 18.4992 10C18.4992 10.829 17.8283 11.5 16.9993 11.5C16.1713 11.5 15.4994 10.829 15.4994 10Z" fill="url(#paint0_linear_0_2331)"/>
<defs>
<linearGradient id="paint0_linear_0_2331" x1="-11.002" y1="-20.1702" x2="-11.002" y2="22" gradientUnits="userSpaceOnUse">
<stop stop-color="#7F95AE"/>
<stop offset="1" stop-color="#E5E9EF"/>
</linearGradient>
</defs>
</svg>
