<svg width="64" height="56" viewBox="0 0 64 56" fill="none" xmlns="http://www.w3.org/2000/svg">
<path fill-rule="evenodd" clip-rule="evenodd" d="M41.0476 0.502314C43.2156 3.21177 43.2156 7.45451 41.0476 10.164C39.6689 11.884 39.6689 14.7827 41.0449 16.4975C41.5063 17.0708 41.4129 17.9108 40.8369 18.3722C40.5915 18.5696 40.2955 18.6656 40.0049 18.6656C39.6129 18.6656 39.2263 18.4948 38.9622 18.1642C36.7916 15.4547 36.7916 11.212 38.9622 8.50254C40.3383 6.78249 40.3383 3.88366 38.9649 2.16899C38.5035 1.59297 38.5969 0.755696 39.1729 0.294308C39.7515 -0.169705 40.5862 -0.0737023 41.0476 0.502314ZM11.9988 21.3323H49.3331C51.5384 21.3323 53.3332 23.127 53.3332 25.3321V27.4059C55.4794 26.7271 58.956 26.0434 61.4214 27.6285C63.1309 28.7325 64.0001 30.6499 64 33.3326C64 41.9622 47.6128 45.1756 46.9142 45.3089L46.422 45.4057C45.5415 46.3353 44.5864 47.2022 43.5622 47.997H60.0027C60.5413 47.997 61.0267 48.3224 61.2347 48.821C61.4427 49.3197 61.3281 49.8931 60.9468 50.2745L57.9573 53.2665C56.1893 55.0293 53.8452 56 51.3518 56H9.98015C7.48672 56 5.14541 55.0292 3.37999 53.2665L0.390539 50.2745C0.00915492 49.8931 -0.105473 49.3197 0.102532 48.821C0.310537 48.3224 0.795924 47.997 1.33456 47.997H17.7661C11.651 43.2468 7.99873 35.9305 7.99873 27.9991V25.3324C7.99873 23.127 9.7934 21.3323 11.9988 21.3323ZM49.0925 42.0572C51.4078 38.5854 52.8534 34.5485 53.233 30.2686C54.9341 29.6319 58.2399 28.7565 59.9786 29.8765C60.888 30.4605 61.3333 31.5939 61.3333 33.3326C61.3333 37.7407 53.9922 40.709 49.0925 42.0572ZM50.6665 27.999C50.6665 33.7267 48.538 39.0948 44.8401 43.1862C44.7686 43.2493 44.7043 43.3197 44.6481 43.396C42.957 45.2203 40.949 46.782 38.6754 47.997H22.6491C15.2501 44.0368 10.6654 36.4052 10.6654 27.999V25.3323C10.6654 24.5962 11.2628 23.9988 11.9988 23.9988H49.3331C50.0692 23.9988 50.6665 24.5962 50.6665 25.3323V27.999ZM22.2599 50.6665C22.3031 50.6686 22.3462 50.6686 22.3891 50.6665H56.7839L56.0693 51.3811C54.8106 52.6398 53.1332 53.3332 51.3546 53.3332H9.98015C8.20148 53.3332 6.52407 52.6398 5.26541 51.3811L4.55077 50.6665H22.2599ZM33.0367 10.164C35.2074 7.45451 35.2074 3.21177 33.0367 0.502314C32.5781 -0.0737023 31.7381 -0.16708 31.1621 0.294308C30.586 0.755696 30.4927 1.59572 30.9541 2.16899C32.3301 3.88366 32.3301 6.78249 30.9514 8.50254C28.7834 11.212 28.7834 15.4547 30.9514 18.1642C31.2154 18.4948 31.6021 18.6656 31.9941 18.6656C32.2847 18.6656 32.5781 18.5696 32.8261 18.3722C33.4021 17.9108 33.4955 17.0735 33.0341 16.4975C31.6607 14.7827 31.6607 11.884 33.0367 10.164ZM25.0472 0.504939C27.2152 3.21439 27.2152 7.45713 25.0472 10.1666C23.6685 11.8866 23.6685 14.7827 25.0445 16.5003C25.5059 17.0735 25.4125 17.9136 24.8365 18.3749C24.5911 18.5696 24.2951 18.6656 24.0045 18.6656C23.6125 18.6656 23.2259 18.4948 22.9619 18.1642C20.7912 15.4547 20.7912 11.212 22.9619 8.50254C24.3379 6.78249 24.3379 3.88366 22.9645 2.16899C22.5058 1.59559 22.5991 0.755571 23.1725 0.296933C23.7511 -0.16708 24.5885 -0.0710772 25.0472 0.504939Z" fill="#2C4664"/>
</svg>
