<svg width="48" height="36" viewBox="0 0 48 36" fill="none" xmlns="http://www.w3.org/2000/svg">
<path fill-rule="evenodd" clip-rule="evenodd" d="M44.99 15.202C39.854 8.656 32.358 4.5 24 4.5C15.642 4.5 8.146 8.656 3.01 15.202L0 12.22C5.87 4.742 14.434 0 24 0C33.566 0 42.13 4.742 48 12.22L44.99 15.202ZM5.998 18.166L9.008 21.144C12.678 16.468 18.032 13.5 24 13.5C29.968 13.5 35.322 16.468 38.992 21.144L42 18.166C37.6 12.558 31.176 9 24 9C16.824 9 10.4 12.556 5.998 18.166ZM32.996 27.086C30.794 24.282 27.582 22.5 24 22.5C20.418 22.5 17.206 24.282 15.004 27.086L12 24.11C14.934 20.372 19.216 18 24 18C28.784 18 33.066 20.372 36 24.11L32.996 27.086ZM24 27C21.608 27 19.484 28.204 18.02 30.072L24 36L29.98 30.074C28.516 28.204 26.392 27 24 27Z" fill="#2C4664"/>
</svg>
