<svg width="148" height="48" viewBox="0 0 148 48" fill="none" xmlns="http://www.w3.org/2000/svg">
<rect y="24" width="4" height="24" fill="url(#paint0_linear_0_1451)"/>
<rect x="12" y="29" width="4" height="19" fill="url(#paint1_linear_0_1451)"/>
<rect x="24" y="12" width="4" height="36" fill="url(#paint2_linear_0_1451)"/>
<rect x="36" y="16" width="4" height="32" fill="url(#paint3_linear_0_1451)"/>
<rect x="48" width="4" height="48" fill="url(#paint4_linear_0_1451)"/>
<rect x="60" y="4" width="4" height="44" fill="url(#paint5_linear_0_1451)"/>
<rect x="72" y="9" width="4" height="39" fill="url(#paint6_linear_0_1451)"/>
<rect x="84" y="14" width="4" height="34" fill="url(#paint7_linear_0_1451)"/>
<rect x="96" y="4" width="4" height="44" fill="url(#paint8_linear_0_1451)"/>
<rect x="108" y="7" width="4" height="41" fill="url(#paint9_linear_0_1451)"/>
<rect x="120" y="16" width="4" height="32" fill="url(#paint10_linear_0_1451)"/>
<rect x="132" y="20" width="4" height="28" fill="url(#paint11_linear_0_1451)"/>
<rect x="144" y="9" width="4" height="39" fill="url(#paint12_linear_0_1451)"/>
<defs>
<linearGradient id="paint0_linear_0_1451" x1="-1.83366" y1="1.99609" x2="-1.83366" y2="48" gradientUnits="userSpaceOnUse">
<stop stop-color="#7F95AE"/>
<stop offset="1" stop-color="white"/>
</linearGradient>
<linearGradient id="paint1_linear_0_1451" x1="10.1663" y1="11.5802" x2="10.1663" y2="48" gradientUnits="userSpaceOnUse">
<stop stop-color="#7F95AE"/>
<stop offset="1" stop-color="white"/>
</linearGradient>
<linearGradient id="paint2_linear_0_1451" x1="22.1663" y1="-21.0059" x2="22.1663" y2="48" gradientUnits="userSpaceOnUse">
<stop stop-color="#7F95AE"/>
<stop offset="1" stop-color="white"/>
</linearGradient>
<linearGradient id="paint3_linear_0_1451" x1="34.1663" y1="-13.3385" x2="34.1663" y2="48" gradientUnits="userSpaceOnUse">
<stop stop-color="#7F95AE"/>
<stop offset="1" stop-color="white"/>
</linearGradient>
<linearGradient id="paint4_linear_0_1451" x1="46.1663" y1="-44.0078" x2="46.1663" y2="48" gradientUnits="userSpaceOnUse">
<stop stop-color="#7F95AE"/>
<stop offset="1" stop-color="white"/>
</linearGradient>
<linearGradient id="paint5_linear_0_1451" x1="58.1663" y1="-36.3405" x2="58.1663" y2="48" gradientUnits="userSpaceOnUse">
<stop stop-color="#7F95AE"/>
<stop offset="1" stop-color="white"/>
</linearGradient>
<linearGradient id="paint6_linear_0_1451" x1="70.1663" y1="-26.7563" x2="70.1663" y2="48" gradientUnits="userSpaceOnUse">
<stop stop-color="#7F95AE"/>
<stop offset="1" stop-color="white"/>
</linearGradient>
<linearGradient id="paint7_linear_0_1451" x1="82.1663" y1="-17.1722" x2="82.1663" y2="48" gradientUnits="userSpaceOnUse">
<stop stop-color="#7F95AE"/>
<stop offset="1" stop-color="white"/>
</linearGradient>
<linearGradient id="paint8_linear_0_1451" x1="94.1663" y1="-36.3405" x2="94.1663" y2="48" gradientUnits="userSpaceOnUse">
<stop stop-color="#7F95AE"/>
<stop offset="1" stop-color="white"/>
</linearGradient>
<linearGradient id="paint9_linear_0_1451" x1="106.166" y1="-30.59" x2="106.166" y2="48" gradientUnits="userSpaceOnUse">
<stop stop-color="#7F95AE"/>
<stop offset="1" stop-color="white"/>
</linearGradient>
<linearGradient id="paint10_linear_0_1451" x1="118.166" y1="-13.3385" x2="118.166" y2="48" gradientUnits="userSpaceOnUse">
<stop stop-color="#7F95AE"/>
<stop offset="1" stop-color="white"/>
</linearGradient>
<linearGradient id="paint11_linear_0_1451" x1="130.166" y1="-5.67122" x2="130.166" y2="48" gradientUnits="userSpaceOnUse">
<stop stop-color="#7F95AE"/>
<stop offset="1" stop-color="white"/>
</linearGradient>
<linearGradient id="paint12_linear_0_1451" x1="142.166" y1="-26.7563" x2="142.166" y2="48" gradientUnits="userSpaceOnUse">
<stop stop-color="#7F95AE"/>
<stop offset="1" stop-color="white"/>
</linearGradient>
</defs>
</svg>
