<svg width="36" height="24" viewBox="0 0 36 24" fill="none" xmlns="http://www.w3.org/2000/svg">
<path fill-rule="evenodd" clip-rule="evenodd" d="M36 3.891L26.0865 15.516L21.57 11.5065L31.5 0L36 3.891ZM20.589 12.6405L25.1115 16.656L19.875 18L20.577 12.654L20.589 12.6405ZM6 16.5H17.07L16.869 18H6V16.5ZM31.5 21V13.8255L28.5 17.4285V20.25C28.5 20.664 28.164 21 27.75 21H3.75C3.336 21 3 20.664 3 20.25V13.5H17.4705L17.766 11.2965L19.737 9H3V6.75C3 6.336 3.336 6 3.75 6H22.314L24.8895 3H3C1.344 3 0 4.344 0 6V21C0 22.656 1.344 24 3 24H28.5C30.156 24 31.5 22.656 31.5 21Z" fill="white"/>
</svg>
